<?xml version="1.0" encoding="utf-8"?>
<!-- Generator: Adobe Illustrator 19.0.0, SVG Export Plug-In . SVG Version: 6.00 Build 0)  -->
<svg version="1.1" id="Layer_1" xmlns="http://www.w3.org/2000/svg" xmlns:xlink="http://www.w3.org/1999/xlink" x="0px" y="0px"
	 viewBox="-381 182.1 197 196.9" style="enable-background:new -381 182.1 197 196.9;" xml:space="preserve">
<style type="text/css">
	.st0{fill:#FFFFFF;}
	.st1{fill:#FF8000;}
	.st2{fill:url(#SVGID_1_);}
	.st3{fill:none;}
</style>
<rect x="-381" y="182.1" class="st0" width="197" height="197"/>
<g>
	<path class="st1" d="M-339,345.7c-1.2,0.4-2.2,1-3,1.7c-0.8,0.8-1.2,1.9-1.2,3.3c0,1.6,0.4,2.8,1.3,3.6s2.2,1.2,3.8,1.2
		c1.4,0,2.7-0.3,3.9-0.9c1.2-0.6,1.2-1.4,3.2-2.3v-7.6c-2,0.1-2.4,0.2-4.1,0.4C-336.7,345-338,345.3-339,345.7z"/>
	<path class="st1" d="M-361.8,335c-1.3,0-2.5,0.3-3.8,0.9c-1.2,0.6-1.4,1.3-3.4,2.3v15.6c2,0.6,2.2,1,3.1,1.2s1.8,0.3,2.9,0.3
		c2.4,0,4.2-0.9,5.5-2.6c1.3-1.8,2-4.3,2-7.7c0-3.1-0.5-5.6-1.5-7.3C-358,336-359.6,335-361.8,335z"/>
	
		<radialGradient id="SVGID_1_" cx="-284.3958" cy="285.1289" r="97.7474" gradientTransform="matrix(1.0019 0 0 -1.0136 2.4362 569.5566)" gradientUnits="userSpaceOnUse">
		<stop  offset="0" style="stop-color:#FFBE64"/>
		<stop  offset="2.536356e-02" style="stop-color:#FFBB5F"/>
		<stop  offset="0.2107" style="stop-color:#FFA63D"/>
		<stop  offset="0.3998" style="stop-color:#FF9522"/>
		<stop  offset="0.5922" style="stop-color:#FF890F"/>
		<stop  offset="0.7897" style="stop-color:#FF8204"/>
		<stop  offset="1" style="stop-color:#FF8000"/>
	</radialGradient>
	<path class="st2" d="M-244,182.1v98.3c0,1,0,1.5,2,1.5l0,0c0,0,0-0.6,0-1.8v-44h6v44.2c0,4.2-2.3,6.3-6.4,6.3
		c-1.7-0.1-3.8-0.7-5-1.8c-1.3-1.3-2.6-2.8-2.6-4.5v-98.2h-131v197h197v-197H-244z M-354,355.3c-2.2,2.7-4.9,4.1-8.2,4.1
		c-1.3,0-2.5-0.2-3.6-0.5c-1-0.3-2.1-1.3-3.2-1.9l-0.1,22h-4.4v-48h4.5v3.2c2-1,2.4-1.9,3.8-2.6s2.9-1,4.5-1c3.1,0,5.5,1.2,7.3,3.7
		c1.7,2.5,2.6,5.8,2.6,10C-350.8,349-351.9,352.7-354,355.3z M-327,360h-4V356c0,0.3-0.8,0.7-1.4,1.2s-1.2,0.9-1.8,1.2
		c-0.8,0.4-1.6,0.8-2.3,1c-0.8,0.2-1.8,0.3-3.2,0.3c-1.1,0-2.2-0.2-3.2-0.6c-1-0.4-1.9-1-2.6-1.8s-1.3-1.7-1.7-2.8
		c-0.4-1.1-0.7-2.3-0.7-3.5c0-1.9,0.4-3.5,1.2-4.9c0.8-1.3,2.1-2.4,3.8-3.2c1.5-0.7,3.3-1.2,5.3-1.5c2.1-0.3,4.6-0.5,6.6-0.6v-0.9
		c0-1.1-0.1-2-0.4-2.6c-0.3-0.7-0.7-1.2-1.3-1.5c-0.6-0.4-1.3-0.6-2.1-0.8c-0.8-0.1-1.7-0.2-2.6-0.2c-1.1,0-2.3,0.3-3.7,0.7
		c-1.4,0.3-2.8,1.6-4.3,1.6h-0.5V332c2-0.2,2.2-0.5,3.8-0.8c1.6-0.3,3.2-0.4,4.7-0.4c1.9,0,3.5,0.1,4.8,0.4s2.4,0.8,3.5,1.6
		c1,0.8,1.4,1.7,1.9,2.9c0.5,1.2,0.4,2.7,0.4,4.4v20H-327z M-306,337h0.2c-0.3,0-0.7-0.5-1.1-0.5s-0.8-0.2-1.4-0.2
		c-1.2,0-2.5,0.2-3.7,0.7s-2.4,0.8-3.5,1.9l0.1,40.1h-3.8v-48h4v4.4c2-1.5,3-2.5,4.2-3.2c1.2-0.6,2.4-0.9,3.5-0.9c0.5,0,0.5,0,0.8,0
		c0.2,0,0.5,0.1,0.5,0.1v5.6H-306z M-284.7,354.3c-0.5,1.1-1.1,2-2,2.7c-1,0.8-2.1,1.4-3.3,1.9c-1.2,0.4-2.8,0.6-4.6,0.6
		c-1.8,0-3.7-0.2-5.3-0.7c-1.6-0.5-2.1-1-4.1-1.6V352h0.6c0.4,0,0.8,0.7,1.4,1c0.5,0.4,1.2,0.8,2.1,1.2c0.8,0.4,1.6,0.7,2.6,1
		c0.9,0.3,1.9,0.4,2.9,0.4c0.7,0,1.5-0.1,2.3-0.3c0.8-0.2,1.4-0.4,1.8-0.7c0.6-0.4,1-0.8,1.2-1.2c0.3-0.4,0.4-1.1,0.4-1.9
		c0-1.1-0.3-1.9-0.9-2.5c-0.6-0.6-1.6-1-3.1-1.4c-0.6-0.1-1.3-0.3-2.3-0.5c-0.9-0.2-1.8-0.4-2.6-0.6c-2.1-0.6-3.6-1.5-4.5-2.8
		s-1.4-2.8-1.4-4.6c0-2.5,0.9-4.5,2.8-6.1c1.8-1.6,4.3-2.3,7.4-2.3c1.5,0,3.5,0.2,5,0.6c1.5,0.4,2.3,0.9,4.3,1.4v5.3h-1.2
		c-1.2-1-2.5-1.9-3.9-2.4s-2.9-0.9-4.3-0.9c-1.5,0-2.8,0.3-3.8,0.9c-1,0.6-1.6,1.6-1.6,2.9c0,1.1,0.3,2,0.9,2.6c0.6,0.6,1.6,1,3,1.4
		c0.7,0.2,1.4,0.4,2.3,0.5c0.8,0.2,1.7,0.4,2.6,0.6c2,0.5,3.5,1.4,4.5,2.5c1,1.2,1.5,2.8,1.5,4.8
		C-284,352.2-284.2,353.2-284.7,354.3z M-261,338h-0.2c-0.3,0-0.7-0.6-1.3-1c-0.5-0.4-1.1-0.7-1.9-1.1c-0.6-0.3-1.4-0.6-2.2-0.9
		c-0.9-0.2-1.7-0.4-2.5-0.4c-2.4,0-4.3,0.9-5.7,2.7c-1.4,1.8-2.2,4.4-2.2,7.7c0,3.2,0.7,5.8,2.1,7.6s3.3,2.7,5.8,2.7
		c1.5,0,2.9-0.4,4.3-1c1.3-0.6,2.5-0.5,3.6-2.5h0.2v5.3c0,0.2-1,0.5-1.7,0.8s-1.3,0.5-1.8,0.7c-0.8,0.2-1.5,0.4-2.1,0.5
		c-0.6,0.1-1.4,0.2-2.4,0.2c-1.9,0-3.6-0.3-5.1-0.9c-1.6-0.6-2.9-1.5-4-2.6c-1.1-1.2-2-2.7-2.6-4.5s-0.9-3.9-0.9-6.3
		c0-2.4,0.3-4.5,1-6.2c0.6-1.8,1.5-3.2,2.6-4.4c1.1-1.2,2.4-2.1,4-2.8c1.6-0.6,3.3-1,5.1-1c1.5,0,2.9,0.2,4.3,0.6
		c1.4,0.4,3.7,0.9,3.7,1.5v5.3H-261z M-259,280.2c0,4.3-2.4,6.4-6.4,6.4c-1.8,0-3.4-0.3-4.4-1c-1,0.7-1.9,1-3.5,1
		c-0.7,0-1.7-0.1-1.7-0.2V299c0,4.3-2.2,6.4-6.2,6.4c-4.4,0-6.8-2.1-6.8-6.4v-44h4v44.1c0,1.1,0.4,1.7,1.8,1.7c1,0,1.2-0.6,1.2-1.7
		v-63.1h6v44.1c0,1.1,0.2,1.7,1.6,1.7c1,0,1.3-1,1.3-2.1l-0.2-43.7h5.4v44.4c0,0.9,1,1.4,2.3,1.4c1,0,1.7-0.6,1.7-1.7v-44.1h4
		L-259,280.2L-259,280.2z M-252,320.7v0.4l0,0v58h-5v-58h0.4l-0.4-0.4v-84.6h5V320.7z M-246,379v-48h6v48H-246z M-240,326.8h-6v-5h6
		V326.8z M-240,303.5h-6v-5h6V303.5z M-240,296.7h-6v-5h6V296.7z M-215,338h-0.4c-0.3,0-0.7-0.6-1.3-1c-0.5-0.4-1.1-0.7-1.9-1.1
		c-0.6-0.3-1.4-0.6-2.2-0.9c-0.9-0.2-1.7-0.4-2.5-0.4c-2.4,0-4.3,0.9-5.7,2.7c-1.4,1.8-2.2,4.4-2.2,7.7c0,3.2,0.7,5.8,2.1,7.6
		c1.4,1.8,3.3,2.7,5.8,2.7c1.5,0,2.9-0.4,4.3-1c1.3-0.6,2.5-0.5,3.6-2.5h0.4v5.3c0,0.2-1.1,0.5-1.8,0.8s-1.3,0.5-1.9,0.7
		c-0.8,0.2-1.5,0.4-2.1,0.5c-0.6,0.1-1.4,0.2-2.4,0.2c-1.9,0-3.6-0.3-5.1-0.9c-1.6-0.6-2.9-1.5-4-2.6c-1.1-1.2-2-2.7-2.6-4.5
		s-0.9-3.9-0.9-6.3c0-2.4,0.3-4.5,1-6.2c0.6-1.8,1.5-3.2,2.6-4.4c1.1-1.2,2.4-2.1,4-2.8c1.6-0.6,3.3-1,5.1-1c1.5,0,3,0.2,4.4,0.6
		c1.4,0.4,1.8,0.9,3.8,1.5v5.3H-215z M-194.5,360l-10.1-13.8l-1.8,1l-0.2,31.8h-4.5v-58h4.1v22l11.3-12h5.7l-11.2,12.2l12.7,16.8
		H-194.5z"/>
	<line class="st3" x1="-250" y1="182.1" x2="-244" y2="182.1"/>
</g>
</svg>
